<?xml version="1.0" standalone="no"?>
<!DOCTYPE svg PUBLIC "-//W3C//DTD SVG 20010904//EN"
 "http://www.w3.org/TR/2001/REC-SVG-20010904/DTD/svg10.dtd">
<svg version="1.0" xmlns="http://www.w3.org/2000/svg"
 width="500.000000pt" height="500.000000pt" viewBox="0 0 500.000000 500.000000"
 preserveAspectRatio="xMidYMid meet">

<g transform="translate(0.000000,500.000000) scale(0.100000,-0.100000)"
fill="#000000" stroke="none">
<path d="M0 2500 l0 -2500 2500 0 2500 0 0 2500 0 2500 -2500 0 -2500 0 0
-2500z m3195 1235 c-49 -30 -93 -55 -97 -55 -5 0 -8 18 -8 39 0 40 0 40 48 46
26 4 63 11 82 15 68 15 64 9 -25 -45z m1305 0 c-71 -46 -163 -91 -241 -118 -9
-3 -42 -43 -74 -89 -145 -207 -264 -340 -593 -664 l-265 -262 33 -48 c66 -97
289 -391 370 -487 181 -216 388 -414 545 -522 92 -63 254 -140 335 -159 108
-26 224 -19 325 19 32 12 -113 -131 -200 -197 -94 -72 -186 -118 -235 -118
-144 0 -437 179 -737 449 -142 128 -398 419 -570 647 l-83 111 0 113 0 113 38
46 c20 25 55 61 77 81 219 195 440 421 576 590 94 118 233 340 212 340 -15 0
-278 -30 -313 -35 l-35 -5 35 31 c52 46 159 107 247 141 73 28 91 31 273 40
107 5 227 15 265 22 39 7 77 14 85 14 8 1 -23 -23 -70 -53z m-1543 -367 c0
-227 8 -597 18 -823 10 -225 18 -563 19 -750 1 -305 -1 -343 -16 -367 l-17
-26 75 -7 c76 -7 204 0 262 15 45 12 33 -1 -46 -49 -137 -83 -351 -153 -522
-171 -52 -5 -100 -10 -107 -10 -7 0 0 25 18 65 35 78 51 181 44 284 -6 85 -52
1083 -63 1370 l-7 184 -45 -79 c-24 -44 -153 -241 -285 -439 -339 -506 -444
-691 -544 -956 -37 -98 -40 -103 -182 -262 l-144 -162 -6 51 c-18 147 -86 291
-469 1004 -122 228 -262 489 -311 579 l-87 164 -6 -44 c-3 -24 -10 -143 -16
-264 -11 -209 -34 -534 -45 -620 -32 -257 -61 -418 -101 -570 -18 -67 -21 -91
-12 -96 25 -15 138 -21 214 -11 43 6 80 9 82 8 1 -2 -31 -26 -72 -55 -88 -61
-178 -104 -258 -125 -78 -20 -218 -32 -218 -18 0 6 5 14 10 17 6 4 19 23 29
43 92 180 149 617 186 1427 33 736 41 824 78 864 13 14 63 71 113 125 l89 99
7 -74 c6 -69 15 -90 127 -314 66 -132 240 -469 386 -750 146 -280 307 -594
358 -697 51 -102 95 -187 98 -187 8 -1 350 529 495 764 202 329 357 616 463
857 l66 149 170 134 c94 73 170 134 171 134 0 1 0 -185 1 -411z m-277 358 c0
-2 -40 -34 -90 -72 -49 -38 -89 -75 -90 -81 0 -7 -10 -15 -22 -17 -44 -9 -118
-17 -118 -13 0 12 160 113 233 147 88 42 87 42 87 36z"/>
</g>
</svg>
