<?xml version="1.0" standalone="no"?>
<!DOCTYPE svg PUBLIC "-//W3C//DTD SVG 20010904//EN"
 "http://www.w3.org/TR/2001/REC-SVG-20010904/DTD/svg10.dtd">
<svg version="1.0" xmlns="http://www.w3.org/2000/svg"
 width="500.000000pt" height="500.000000pt" viewBox="0 0 500.000000 500.000000"
 preserveAspectRatio="xMidYMid meet">

<g transform="translate(0.000000,500.000000) scale(0.100000,-0.100000)"
fill="#000000" stroke="none">
<path d="M3170 3766 l-75 -11 -3 -44 -3 -44 58 33 c80 45 131 80 113 79 -8 -1
-49 -7 -90 -13z"/>
<path d="M4465 3764 c-44 -7 -152 -16 -240 -19 -88 -4 -186 -13 -217 -21 -88
-21 -241 -103 -328 -175 -21 -17 -22 -19 -5 -15 36 10 326 38 332 33 7 -7 -38
-94 -90 -175 -108 -167 -385 -471 -627 -690 -58 -52 -122 -115 -142 -141 l-38
-46 0 -112 0 -112 89 -118 c203 -273 489 -585 684 -746 207 -172 442 -312 562
-337 77 -16 123 -2 233 70 74 49 279 227 270 235 -2 2 -37 -6 -78 -17 -96 -25
-203 -19 -315 17 -332 109 -696 455 -1164 1109 l-64 88 263 261 c332 330 485
504 604 683 40 61 53 73 89 84 71 21 287 139 287 156 0 5 -7 4 -105 -12z"/>
<path d="M2781 3632 l-174 -137 -52 -125 c-83 -199 -240 -496 -423 -800 -75
-124 -517 -817 -533 -834 -4 -5 -49 74 -100 175 -50 101 -144 285 -209 409
-678 1301 -660 1264 -669 1362 l-6 75 -90 -99 c-139 -153 -141 -156 -148 -240
-11 -124 -26 -398 -42 -748 -39 -860 -100 -1301 -201 -1454 l-26 -39 98 5
c147 9 254 50 395 152 l56 41 -148 0 c-81 0 -150 3 -154 6 -3 4 5 47 19 95 76
276 124 683 152 1299 4 83 10 160 13 172 5 17 23 -9 87 -130 45 -84 180 -334
300 -557 381 -709 465 -887 482 -1030 l7 -53 145 162 c140 158 146 166 178
254 47 129 164 369 257 522 43 72 153 240 245 375 166 244 321 484 356 550 18
35 18 35 35 -360 10 -217 27 -591 38 -830 12 -271 17 -454 11 -485 -7 -43 -23
-92 -55 -167 -6 -16 0 -18 55 -18 135 0 361 63 520 146 83 43 160 95 115 78
-11 -4 -94 -9 -184 -12 -152 -4 -163 -3 -157 13 33 87 33 390 0 1140 -8 204
-16 562 -17 798 -1 235 -1 427 -2 427 0 -1 -78 -62 -174 -138z"/>
<path d="M2608 3691 c-100 -43 -296 -176 -232 -158 11 3 43 9 72 12 30 4 52
12 52 19 0 6 41 43 90 81 80 62 96 76 88 75 -2 0 -33 -13 -70 -29z"/>
</g>
</svg>
