<?xml version="1.0" encoding="utf-8"?>
<svg version="1.1" id="Layer_1" xmlns="http://www.w3.org/2000/svg" xmlns:xlink="http://www.w3.org/1999/xlink" x="0px" y="0px"
	 viewBox="39 31 193 194" xml:space="preserve">
<style type="text/css">
	.st0{fill:#424AA0;}
	.st1{fill:none;}
	.st2{clip-path:url(#SVGID_2_);}
	.st3{clip-path:url(#SVGID_4_);}
	.st4{fill:#FFFFFF;}
</style>
<title>Untitled-2</title>
<path class="st0" d="M78.5,86.2c-8.2,0.2-15-6.3-15.2-14.5c-0.2-8.2,6.3-15,14.5-15.2C86,56.3,92.8,62.8,93,71c0,0.1,0,0.2,0,0.3
	C93.1,79.5,86.6,86.1,78.5,86.2z M78.5,62.5c-4.9-0.2-9,3.6-9.2,8.5c-0.2,4.9,3.6,9,8.5,9.2c4.9,0.2,9-3.6,9.2-8.5
	c0-0.1,0-0.2,0-0.3C87.1,66.6,83.3,62.6,78.5,62.5z"/>
<path class="st0" d="M55,142.8c-8.2-0.1-14.8-6.8-14.7-15c0.1-8.2,6.8-14.8,15-14.7c8.1,0.1,14.7,6.7,14.7,14.8
	C69.9,136.2,63.2,142.9,55,142.8z M55,119.2c-4.9,0.1-8.8,4.1-8.7,9c0.1,4.9,4.1,8.8,9,8.7c4.8-0.1,8.7-4,8.7-8.8
	C63.9,123.1,59.9,119.1,55,119.2z"/>
<path class="st0" d="M217,143.7c-8.2-0.1-14.8-6.8-14.7-15s6.8-14.8,15-14.7c8.1,0.1,14.7,6.7,14.7,14.8
	C231.9,137.1,225.2,143.7,217,143.7z M217,120c-4.9,0.1-8.8,4.1-8.7,9c0.1,4.9,4.1,8.8,9,8.7c4.8-0.1,8.7-4,8.7-8.8
	C226,123.9,221.9,120,217,120z"/>
<path class="st0" d="M192.5,200.3c-8.2,0.2-15-6.3-15.2-14.5s6.3-15,14.5-15.2c8.2-0.2,15,6.3,15.2,14.5c0,0.1,0,0.2,0,0.3
	C207.1,193.6,200.6,200.2,192.5,200.3z M192.5,176.6c-4.9-0.2-9,3.6-9.2,8.5c-0.2,4.9,3.6,9,8.5,9.2s9-3.6,9.2-8.5
	c0-0.1,0-0.2,0-0.4C201.1,180.7,197.3,176.8,192.5,176.6z"/>
<path class="st0" d="M78.5,200.3c-8.2,0.2-15-6.3-15.2-14.5c-0.2-8.2,6.3-15,14.5-15.2s15,6.3,15.2,14.5c0,0.1,0,0.2,0,0.3
	C93.1,193.6,86.6,200.2,78.5,200.3z M78.5,176.6c-4.9-0.2-9,3.6-9.2,8.5s3.6,9,8.5,9.2s9-3.6,9.2-8.5c0-0.1,0-0.2,0-0.4
	C87.1,180.7,83.3,176.8,78.5,176.6z"/>
<path class="st0" d="M136,224.9c-8.2-0.1-14.8-6.8-14.7-15c0.1-8.2,6.8-14.8,15-14.7c8.1,0.1,14.7,6.7,14.7,14.8
	C151,218.2,144.2,224.9,136,224.9z M136,201.2c-4.9,0.1-8.8,4.1-8.7,9s4.1,8.8,9,8.7c4.8-0.1,8.7-4,8.7-8.8
	C144.9,205.1,140.9,201.1,136,201.2L136,201.2z"/>
<path class="st0" d="M192.5,86.2c-8.2,0.2-15-6.3-15.2-14.5c-0.2-8.2,6.3-15,14.5-15.2c8.2-0.2,15,6.3,15.2,14.5c0,0.1,0,0.2,0,0.3
	C207.1,79.5,200.6,86.1,192.5,86.2z M192.5,62.5c-4.9-0.2-9,3.6-9.2,8.5s3.6,9,8.5,9.2c4.9,0.2,9-3.6,9.2-8.5c0-0.1,0-0.2,0-0.3
	C201.1,66.6,197.3,62.6,192.5,62.5z"/>
<path class="st0" d="M136,61.7c-8.2-0.1-14.8-6.8-14.7-15c0.1-8.2,6.8-14.8,15-14.7c8.1,0.1,14.7,6.7,14.7,14.8
	C150.9,55.1,144.2,61.7,136,61.7z M136,38c-4.9,0.1-8.8,4.1-8.7,9s4.1,8.8,9,8.7c4.8-0.1,8.7-4,8.7-8.8C145,41.9,140.9,38,136,38z"
	/>
<rect x="133.4" y="150.8" transform="matrix(1 -5.410494e-03 5.410494e-03 1 -0.9409 0.7404)" class="st0" width="6" height="46.9"/>
<rect x="133.4" y="57.8" transform="matrix(1 -5.410494e-03 5.410494e-03 1 -0.4378 0.7391)" class="st0" width="6" height="46.9"/>
<rect x="99.5" y="71.4" transform="matrix(0.712 -0.7022 0.7022 0.712 -37.0848 99.2878)" class="st0" width="6" height="47"/>
<rect x="146" y="91.8" transform="matrix(0.7022 -0.712 0.712 0.7022 -17.0368 148.9339)" class="st0" width="47" height="6"/>
<rect x="79" y="156.1" transform="matrix(0.7022 -0.712 0.712 0.7022 -82.7456 120.37)" class="st0" width="47" height="6"/>
<rect x="166.5" y="135.6" transform="matrix(0.712 -0.7022 0.7022 0.712 -62.9136 164.8376)" class="st0" width="6" height="47"/>
<rect x="67" y="126.1" transform="matrix(1 -8.901061e-03 8.901061e-03 1 -1.1453 0.8106)" class="st0" width="47" height="6"/>
<rect x="159" y="126.9" transform="matrix(1 -8.901061e-03 8.901061e-03 1 -1.1491 1.6295)" class="st0" width="47" height="6"/>
<rect x="-152" y="-1172" class="st1" width="1960" height="1917"/>
<g>
	<defs>
		<path id="SVGID_1_" d="M130.5,91.9c8.9,0,16.7,5.7,19.5,14.1c5.2-2.5,11.5-0.3,14,4.9c1.4,2.9,1.4,6.2,0,9.1h2c8.8,0,16,7.2,16,16
			s-7.2,16-16,16h-59c-8.8,0-16-7.2-16-16s7.2-16,16-16h4.4c-0.9-2.4-1.4-4.9-1.4-7.5C110,101.2,119.1,92,130.5,91.9
			C130.4,91.9,130.5,91.9,130.5,91.9z"/>
	</defs>
	<clipPath id="SVGID_2_">
		<use xlink:href="#SVGID_1_"  style="overflow:visible;"/>
	</clipPath>
	<g class="st2">
		<g>
			<defs>
				<rect id="SVGID_3_" x="-135" y="-1172" width="1960" height="1917"/>
			</defs>
			<clipPath id="SVGID_4_">
				<use xlink:href="#SVGID_3_"  style="overflow:visible;"/>
			</clipPath>
			<g class="st3">
				<rect x="86" y="86.9" class="st4" width="101" height="70"/>
			</g>
		</g>
	</g>
</g>
<path class="st0" d="M166,154.9h-59c-10.5,0-19-8.5-19-19s8.5-19,19-19h0.4c-0.3-1.5-0.4-3-0.4-4.5c0-13,10.6-23.5,23.5-23.5
	c9,0,17.2,5.2,21.1,13.3c0.9-0.2,1.9-0.3,2.8-0.3c7.5,0,13.5,6,13.5,13.5c0,0.5,0,1.1-0.1,1.6c10.4,1.1,18,10.4,17,20.8
	C183.9,147.5,175.7,154.9,166,154.9z M130.5,94.9c-9.7,0-17.5,7.8-17.5,17.5c0,2.2,0.4,4.4,1.2,6.4l1.6,4.1H107c-7.2,0-13,5.8-13,13
	s5.8,13,13,13h59c7.2,0,13-5.8,13-13s-5.8-13-13-13h-6.8l2-4.3c0.5-1,0.7-2.1,0.7-3.2c0-4.1-3.4-7.5-7.5-7.5c-1.1,0-2.2,0.2-3.2,0.7
	l-3.1,1.5l-1.1-3.2C144.7,99.8,138,94.9,130.5,94.9z"/>
<rect x="-135" y="-1172" class="st1" width="1960" height="1917"/>
</svg>
